Patient4_TMGait_0pt6_01_right_09_EMG.mot
version=1
nRows=29
nColumns=33
inDegrees=no
endheader
time	1LAddLong	2LGlutMax	3LGlutMed	4LIliopsoas	5LSemiMemb	6LBicFemLong	7LRecFem	8LVastMed	9LVastLat	10LGasMed	11LTibAnt	12lTibPost	13LPeroneusLong	14LSol	15LExtDigLong	16LFlexDigLong	17RAddLong	18RGlutMax	19RGlutMed	20RIliopsoas	21RSemiMemb	22RBicFemLong	23RRecFem	24RVastMed	25RVastLat	26RGasMed	27RTibAnt	28RTibPost	29RPeroneusLong	30RSol	31RExtDigLong	32RFlexDigLong
10.33	0.01236	-0.11932	-0.063934	0.037079	0.025635	-0.090027	0.008698	0.033264	0.23972	0.15076	-0.037079	-0.006104	0.2652	0.017242	-0.29907	0.010986	-0.045319	-0.088348	0.061188	-0.12695	0.070343	0.011139	-0.11383	0.037689	-0.000763	-0.020142	-0.38559	-0.009613	0.084686	0.11765	-0.002441	-0.016174
10.331	0.00946	-0.10742	-0.054169	0.024872	0.020142	-0.074768	-0.000305	0.022278	0.21484	0.11871	0.012512	-0.00412	-0.27527	-0.060883	-0.21271	0.003815	-0.042114	-0.11032	-0.21225	-0.084229	0.056915	0.013885	-0.15076	0.047913	-0.009308	-0.014496	-0.19898	-0.005493	0.062561	0.050507	-0.001373	-0.010071
10.332	0.007629	-0.068207	-0.025177	0.000763	0.065002	0.040283	0.091248	-0.008392	0.1181	0.095367	0.031281	-0.009308	-0.25131	-0.10071	-0.31693	-0.004272	-0.024261	-0.10223	0.058594	-0.081787	0.045929	0.015106	-0.16357	-0.058746	-0.016022	-0.012512	0.13214	-0.008087	-0.6665	0.099182	-0.006714	-0.013123
10.333	-0.000458	-0.055237	-0.032501	-0.012512	0.045166	0.11581	0.18204	-0.015869	0.068054	-0.002289	0.09964	0.003967	-0.23529	-0.009003	-0.10025	-0.002136	-0.022888	-0.083771	-0.21622	-0.045776	0.051575	0.020752	-0.18829	-0.12573	-0.029449	-0.005951	0.21637	-0.005035	-0.38116	0.072937	-0.00473	-0.008545
10.334	-0.012054	-0.000153	0.023499	-0.026398	-0.017395	0.06012	0.18539	-0.014648	0.029297	-0.073853	0.21942	-0.009308	0.65689	0.14771	0.093384	-0.003967	-0.003967	-0.097504	-0.16708	0.001068	0.057373	0.030823	-0.11871	-0.13657	-0.016479	-0.006714	0.041656	-0.002136	-0.22644	0.028839	-0.000458	-0.004272
10.335	-0.014038	-0.001678	0.026398	-0.009003	-0.092926	0.038605	0.1651	0.000458	-0.012054	-0.078583	0.056763	0.006256	0.34256	0.10803	0.053864	-0.007629	0.027618	-0.074921	0.049438	0.036316	0.06424	0.026855	-0.10452	-0.10849	0.002441	-0.010834	0.029449	-0.002136	-0.20203	0.007019	-0.002747	-0.001831
10.336	0.000763	-0.047913	-0.09201	-0.016022	-0.034943	-0.002441	0.11612	0.007935	0.001984	-0.063629	-0.024567	-0.00946	0.090027	0.10117	-0.1503	-0.002594	0.0383	-0.15686	-0.059662	0.045776	0.065613	0.010834	-0.077667	-0.15106	-0.018311	-0.005188	0.079193	-0.010376	-0.063477	0.026245	-0.003204	-0.002441
10.337	0.005035	-0.022278	-0.1207	0.000153	0.061646	0	0.10208	0.010681	0.042572	-0.063629	0.003052	-0.000305	-0.078583	0.069733	-0.23682	-0.005341	0.026245	-0.13794	-0.031891	0.02182	0.057373	0.007324	-0.044861	-0.16266	-0.024567	-0.005646	0.29907	-0.005798	-0.053711	0.071716	-0.002136	0.003204
10.338	0.020447	0.000153	-0.15259	-0.014648	0.055389	-0.029144	0.064087	0.013885	0.036316	-0.03006	-0.021362	0.016174	0.1767	-0.083008	-0.20569	-0.006409	0.020905	-0.082092	0.010071	0.041046	0.059967	-0.002594	0.014801	-0.1326	-0.023956	-0.006561	0.21744	-0.007629	0.057068	0.003662	-0.001373	-0.002136
10.339	0.017548	0.003357	-0.17502	-0.005493	0.048218	0.028839	0.082397	0.014801	0.04837	-0.030823	-0.054016	-0.013733	-0.10422	0.058899	-0.20889	0.009766	0.022888	-0.093689	0.034485	0.088196	0.04776	0.012054	0.14404	-0.071411	-0.004578	-0.006256	-0.023346	-0.00351	0.025024	-0.059509	-0.002136	-0.006104
10.34	0.015411	0.029297	-0.06958	0.003357	0.014496	0.079803	0.1886	0.003357	0.13489	-0.007629	-0.027313	-0.009766	-0.25604	0.003204	-0.072327	0.011139	0.003357	-0.097046	0.1181	0.058136	0.006256	0.046387	0.078888	0.002747	-0.015259	-0.002441	-0.15152	-0.013123	-0.090485	-0.093689	-0.000458	-0.003357
10.341	0.013885	0.027313	-0.080566	0.007477	0.009613	0.031433	0.22888	0.005035	0.15595	-0.014038	-0.025177	-0.00412	0.18753	-0.071411	0.016785	0.005798	0.013123	-0.10208	-0.023956	0.023499	0.008392	0.059967	0.064392	-0.029602	-0.00824	-0.008392	0.084991	-0.009003	-0.13672	-0.057831	-0.001831	-0.00473
10.342	0.006256	0.036011	0.015564	-0.010223	0.065765	0.003967	0.1593	0.005035	0.11292	-0.006714	-0.041199	0.011597	0.17471	-0.14099	0.053864	0.001373	0.037689	-0.055542	0.039063	-0.052185	0.024261	0.045471	0.079498	-0.076904	0.00351	-0.007172	0.29816	-0.007019	-0.037994	-0.044403	-0.002441	-0.00412
10.343	0.006409	0.065002	-0.029297	0.01709	0.070038	-0.02121	0.12238	0.009766	0.10895	0.028534	-0.025787	-0.003204	-0.27222	-0.18005	0.14282	-0.001678	0.050507	0.007477	-0.045929	-0.021515	0.027466	0.037537	0.050201	-0.056915	0.012512	-0.007019	0.22659	-0.002136	0.21347	-0.012665	-0.002747	-0.001984
10.344	0	0.0737	0.079498	0.003967	0.032043	0.028534	0.12329	0.011444	0.095062	0.00412	-0.015717	0.00473	-0.039368	-0.075989	0.24109	0.002594	0.034485	-0.027618	-0.22934	-0.011902	0.014954	0.049133	0.068207	-0.034027	0.016632	-0.006561	0.12283	-0.011139	-0.019226	-0.083313	-0.004883	-0.003357
10.345	0.003204	0.056458	-0.078888	0.005798	0.021057	0.09491	0.15839	0.010376	0.092468	-0.056	-0.025787	0.005035	-0.15457	-0.056458	0.49332	0.006714	0.002594	-0.089111	-0.19119	0.02594	0.011902	0.030518	0.041962	-0.026398	-0.00885	-0.011597	-0.25711	-0.00473	-0.45517	-0.16205	0.00061	-0.014954
10.346	-0.001373	0.11353	-0.10864	0.021973	-0.013428	0.050812	0.13367	0.007172	0.16403	-0.10941	0.11826	0.005798	0.008392	-0.048218	0.2066	-0.002899	0.004425	0.000916	-0.10696	0.011902	0.000458	-0.006409	0.060272	-0.06073	-0.017395	-0.007019	-0.20554	-0.003967	-0.33188	-0.2475	-0.001373	-0.003357
10.347	-0.001373	0.12039	-0.064087	0.028229	-0.063629	0.018463	0.14069	-0.007935	0.23468	-0.11002	0.10269	0.003967	-0.041351	-0.057068	0.001831	-0.004578	-0.007324	0.010071	-0.028381	-0.014496	0.00412	0.019989	0.033264	-0.053558	-0.019531	-0.004272	0.13184	-0.001984	-0.15595	-0.31815	-0.002289	-0.003967
10.348	0.005951	0.15778	-0.041046	-0.018768	-0.10346	-0.07843	0.14664	-0.000153	0.21454	-0.097351	0.06073	-0.000763	-0.78705	0.047302	-0.067139	-0.012665	-0.010223	-0.031891	-0.041351	0.079041	-0.009918	0.018616	0.042114	-0.068054	-0.032043	0.001831	0.052185	0.009308	0.19058	-0.37811	-0.001526	-0.004578
10.349	0.014038	0.16266	-0.028076	-0.00412	-0.022125	-0.088043	0.19165	0.003967	-0.033875	-0.1297	0.018768	0.014038	-0.32471	-0.004425	-0.12817	-0.019989	-0.011139	0.006866	-0.028839	0.081024	0.013123	-0.005798	-0.003052	-0.10468	-0.035095	-0.00473	0.14084	-0.005646	0.49911	-0.29465	0.002136	0.000458
10.35	0.017853	0.15793	-0.05249	-0.003204	0.056	-0.043945	0.097198	0.005493	-0.16495	-0.13001	0.013275	0.006256	1.1859	-0.14572	-0.097504	0.001678	-0.001831	0.019226	-0.2948	0.13092	-0.006561	0.016632	-0.013275	-0.04425	-0.026245	-0.007019	0.24246	-0.00824	0.78384	-0.12528	0.000305	-0.005951
10.351	0.022736	0.16312	-0.12482	-0.010376	0.10788	-0.058289	0.10605	0.001068	-0.18158	-0.034332	0.00824	0.009613	1.3045	-0.070496	-0.069427	-0.000458	0.014038	0.006561	-0.18204	0.19058	0.01358	0.036011	-0.10468	-0.083466	-0.006256	-0.011292	0.46173	-0.009155	0.26916	-0.12436	-0.007019	0.002747
10.352	0.018768	0.15518	-0.077362	0.004272	0.080566	-0.015717	0.11917	-0.00351	-0.028229	0.059509	0.00946	0.009308	-0.19775	0.088654	-0.020752	0.011749	0.014648	-0.00473	0.00824	0.062714	0.005646	0.02655	-0.090332	-0.11627	-0.004578	-0.016785	0.23621	-0.005341	-0.1503	0.006256	0.002747	-0.003967
10.353	0.015869	0.18539	-0.030365	0.011902	0.06958	0.072021	0.11368	-0.006866	-0.023804	0.13626	-0.044556	0.000305	-0.99777	0.082245	-0.061188	-0.019226	0.023804	-0.01297	0.13916	-0.036469	0.010529	0.028381	-0.066223	-0.13306	-0.025024	-0.010986	-0.036926	-0.003815	0.050659	0.19928	-0.00061	-0.000458
10.354	0.015717	0.14603	0.049133	0.009308	0.019684	-0.005035	0.053711	-0.005798	0.071869	0.1741	-0.039673	0.002289	-0.49606	0.099182	0.005798	0.027771	0.027618	-0.020294	-0.1622	-0.024261	0.012054	0.025787	-0.042267	-0.10391	-0.020294	-0.007477	-0.099487	-0.008698	-0.16312	0.25269	0.001068	-0.002594
10.355	0.007172	0.094299	-0.011292	0.012207	0.022736	-0.000458	0.11017	0.000763	0.074463	0.15656	-0.012207	-0.00412	-0.010223	-0.014648	0.048981	0.11017	0.025177	-0.011292	-0.13763	-0.023956	0.019531	0.019836	-0.011444	-0.082855	-0.023193	-0.011749	0.2066	-0.011139	-0.29282	0.21744	-0.00061	0.002289
10.356	0.005951	0.069275	0.014954	0.009613	0.047913	-0.001068	0.12482	0.00061	0.13336	0.10407	0.010986	0.010071	0.28503	-0.016937	-0.003357	-0.098267	0.021362	-0.008698	0.063324	-0.034943	0.032043	0.007324	-0.022888	-0.049591	-0.027618	-0.01709	0.4689	-0.005798	-0.1033	0.094757	0.004578	-0.003815
10.357	0.016479	0.077667	0.034637	-0.007782	0.04715	-0.02594	0.16357	-0.005341	-0.006866	0.092773	0.052795	0.001221	-0.17548	-0.06134	-0.039063	-0.056458	0.019073	-0.032043	0.26459	-0.10422	0.02533	0.019989	-0.035553	-0.039978	-0.003967	-0.004425	-0.54001	-0.001984	-0.1648	0.042419	-0.000153	0.002747
10.358	0.005646	0.090179	0.027771	0.009003	0.026398	-0.037842	0.16678	-0.002594	-0.042419	0.053558	0.00412	0.012054	-0.02243	-0.29236	0.010834	0.23377	0.003052	-0.030518	0.4007	-0.060577	0.016632	0.058441	-0.001373	-0.045319	-0.015564	-0.010986	-0.42557	-0.004272	-0.46677	0.018616	0.003204	-0.000458
